<?xml version="1.0" standalone="no"?>
<!DOCTYPE svg PUBLIC "-//W3C//DTD SVG 20010904//EN"
 "http://www.w3.org/TR/2001/REC-SVG-20010904/DTD/svg10.dtd">
<svg version="1.0" xmlns="http://www.w3.org/2000/svg"
 width="255.000000pt" height="113.000000pt" viewBox="0 0 255.000000 113.000000"
 preserveAspectRatio="xMidYMid meet">

<g transform="translate(0.000000,113.000000) scale(0.100000,-0.100000)"
fill="#000000" stroke="none">
<path d="M1344 455 c-4 -9 -2 -21 4 -27 15 -15 44 -1 40 19 -4 23 -36 29 -44
8z"/>
<path d="M1015 438 c-32 -17 -45 -39 -45 -78 0 -43 33 -80 72 -80 14 0 31 -7
38 -15 7 -8 24 -15 37 -15 24 0 25 1 10 23 -13 20 -13 26 -1 42 15 20 18 62 8
90 -7 19 -55 45 -81 45 -10 0 -27 -6 -38 -12z m69 -44 c21 -21 20 -40 -4 -64
-16 -16 -25 -18 -39 -11 -18 10 -31 32 -31 51 0 13 30 40 45 40 7 0 21 -7 29
-16z"/>
<path d="M1570 365 c0 -84 0 -85 25 -85 19 0 25 5 26 23 l0 22 16 -22 c10 -15
26 -23 45 -23 l29 0 -24 32 -25 32 25 33 25 33 -30 0 c-19 0 -35 -8 -45 -22
-16 -22 -16 -22 -16 20 -1 38 -3 42 -26 42 -25 0 -25 -1 -25 -85z"/>
<path d="M1750 430 c-11 -11 -20 -26 -20 -33 0 -18 32 -47 52 -47 22 0 42 -26
28 -35 -7 -4 -17 -2 -23 4 -13 13 -57 15 -57 3 0 -19 39 -42 71 -42 42 0 59
15 59 51 0 22 -7 30 -40 43 -22 9 -40 20 -40 25 0 15 18 23 25 11 8 -13 55
-13 55 -1 0 15 -42 41 -67 41 -13 0 -32 -9 -43 -20z"/>
<path d="M1170 364 c0 -73 11 -84 80 -84 l60 0 0 65 c0 62 -1 65 -24 65 -23 0
-25 -5 -28 -47 -2 -35 -7 -48 -18 -48 -11 0 -16 13 -18 48 -3 42 -5 47 -28 47
-22 0 -24 -4 -24 -46z"/>
<path d="M1340 345 c0 -63 1 -65 25 -65 24 0 25 2 25 65 0 63 -1 65 -25 65
-24 0 -25 -2 -25 -65z"/>
<path d="M1437 392 c-22 -25 -21 -75 1 -95 23 -21 76 -22 96 -1 23 23 20 26
-20 22 -26 -2 -40 2 -48 14 -15 25 7 43 49 39 39 -3 42 1 19 23 -21 22 -77 20
-97 -2z"/>
<path d="M1907 392 c-22 -25 -21 -75 1 -95 23 -21 76 -22 96 -1 23 22 20 26
-18 23 -19 -2 -38 0 -42 4 -4 4 14 7 40 7 46 0 46 1 40 28 -4 15 -13 33 -22
40 -23 18 -76 15 -95 -6z m73 -28 c0 -2 -9 -4 -21 -4 -11 0 -18 4 -14 10 5 8
35 3 35 -6z"/>
<path d="M2050 345 c0 -63 1 -65 25 -65 23 0 25 4 25 41 0 32 4 42 19 46 11 3
22 12 23 22 2 9 13 -11 24 -44 19 -54 23 -60 51 -63 29 -3 32 0 48 50 10 29
20 59 23 66 2 7 -5 12 -21 12 -21 0 -27 -6 -32 -32 -12 -53 -19 -56 -31 -13
l-11 40 -71 2 -72 2 0 -64z"/>
<path d="M2325 396 c-13 -9 -19 -26 -19 -51 0 -25 6 -42 19 -51 29 -21 79 -17
101 7 l19 22 -42 -6 c-24 -3 -46 -1 -49 4 -3 5 15 9 40 9 42 0 46 2 46 23 0
49 -71 75 -115 43z m60 -26 c3 -5 -3 -10 -15 -10 -12 0 -18 5 -15 10 3 6 10
10 15 10 5 0 12 -4 15 -10z"/>
</g>
</svg>
